<mxfile host="Electron" modified="2023-07-20T16:52:37.328Z" agent="Mozilla/5.0 (Windows NT 10.0; Win64; x64) AppleWebKit/537.36 (KHTML, like Gecko) draw.io/21.6.1 Chrome/112.0.5615.204 Electron/24.6.1 Safari/537.36" etag="SXFm1KehwNERR9SdhMy3" version="21.6.1" type="device">
  <diagram name="Pagina-1" id="JCi-VtsOW7-FUkoQYLxe">
    <mxGraphModel dx="570" dy="425" grid="1" gridSize="10" guides="1" tooltips="1" connect="1" arrows="1" fold="1" page="1" pageScale="1" pageWidth="827" pageHeight="1169" math="0" shadow="0">
      <root>
        <mxCell id="0" />
        <mxCell id="1" parent="0" />
        <mxCell id="nRlpXkI3b5ocAR5TRdgN-1" value="Gateway-API" style="shape=umlLifeline;perimeter=lifelinePerimeter;whiteSpace=wrap;html=1;container=0;dropTarget=0;collapsible=0;recursiveResize=0;outlineConnect=0;portConstraint=eastwest;newEdgeStyle={&quot;edgeStyle&quot;:&quot;elbowEdgeStyle&quot;,&quot;elbow&quot;:&quot;vertical&quot;,&quot;curved&quot;:0,&quot;rounded&quot;:0};" vertex="1" parent="1">
          <mxGeometry x="210" y="100" width="100" height="380" as="geometry" />
        </mxCell>
        <mxCell id="nRlpXkI3b5ocAR5TRdgN-2" value="" style="html=1;points=[];perimeter=orthogonalPerimeter;outlineConnect=0;targetShapes=umlLifeline;portConstraint=eastwest;newEdgeStyle={&quot;edgeStyle&quot;:&quot;elbowEdgeStyle&quot;,&quot;elbow&quot;:&quot;vertical&quot;,&quot;curved&quot;:0,&quot;rounded&quot;:0};" vertex="1" parent="nRlpXkI3b5ocAR5TRdgN-1">
          <mxGeometry x="45" y="70" width="10" height="260" as="geometry" />
        </mxCell>
        <mxCell id="nRlpXkI3b5ocAR5TRdgN-3" value="make-route" style="html=1;verticalAlign=bottom;startArrow=oval;endArrow=classic;startSize=8;edgeStyle=elbowEdgeStyle;elbow=vertical;curved=0;rounded=0;endFill=1;" edge="1" parent="nRlpXkI3b5ocAR5TRdgN-1" target="nRlpXkI3b5ocAR5TRdgN-2">
          <mxGeometry relative="1" as="geometry">
            <mxPoint x="-45" y="70" as="sourcePoint" />
          </mxGeometry>
        </mxCell>
        <mxCell id="nRlpXkI3b5ocAR5TRdgN-9" value="Make-Route-Service" style="shape=umlLifeline;perimeter=lifelinePerimeter;whiteSpace=wrap;html=1;container=0;dropTarget=0;collapsible=0;recursiveResize=0;outlineConnect=0;portConstraint=eastwest;newEdgeStyle={&quot;edgeStyle&quot;:&quot;elbowEdgeStyle&quot;,&quot;elbow&quot;:&quot;vertical&quot;,&quot;curved&quot;:0,&quot;rounded&quot;:0};" vertex="1" parent="1">
          <mxGeometry x="950" y="100" width="130" height="380" as="geometry" />
        </mxCell>
        <mxCell id="nRlpXkI3b5ocAR5TRdgN-10" value="" style="html=1;points=[];perimeter=orthogonalPerimeter;outlineConnect=0;targetShapes=umlLifeline;portConstraint=eastwest;newEdgeStyle={&quot;edgeStyle&quot;:&quot;elbowEdgeStyle&quot;,&quot;elbow&quot;:&quot;vertical&quot;,&quot;curved&quot;:0,&quot;rounded&quot;:0};" vertex="1" parent="nRlpXkI3b5ocAR5TRdgN-9">
          <mxGeometry x="60" y="230" width="10" height="60" as="geometry" />
        </mxCell>
        <mxCell id="nRlpXkI3b5ocAR5TRdgN-14" value="Node-Selector-Service" style="shape=umlLifeline;perimeter=lifelinePerimeter;whiteSpace=wrap;html=1;container=0;dropTarget=0;collapsible=0;recursiveResize=0;outlineConnect=0;portConstraint=eastwest;newEdgeStyle={&quot;edgeStyle&quot;:&quot;elbowEdgeStyle&quot;,&quot;elbow&quot;:&quot;vertical&quot;,&quot;curved&quot;:0,&quot;rounded&quot;:0};" vertex="1" parent="1">
          <mxGeometry x="350" y="100" width="130" height="380" as="geometry" />
        </mxCell>
        <mxCell id="nRlpXkI3b5ocAR5TRdgN-15" value="" style="html=1;points=[];perimeter=orthogonalPerimeter;outlineConnect=0;targetShapes=umlLifeline;portConstraint=eastwest;newEdgeStyle={&quot;edgeStyle&quot;:&quot;elbowEdgeStyle&quot;,&quot;elbow&quot;:&quot;vertical&quot;,&quot;curved&quot;:0,&quot;rounded&quot;:0};" vertex="1" parent="nRlpXkI3b5ocAR5TRdgN-14">
          <mxGeometry x="60" y="90" width="10" height="220" as="geometry" />
        </mxCell>
        <mxCell id="nRlpXkI3b5ocAR5TRdgN-22" value="ORS-App" style="shape=umlLifeline;perimeter=lifelinePerimeter;whiteSpace=wrap;html=1;container=0;dropTarget=0;collapsible=0;recursiveResize=0;outlineConnect=0;portConstraint=eastwest;newEdgeStyle={&quot;edgeStyle&quot;:&quot;elbowEdgeStyle&quot;,&quot;elbow&quot;:&quot;vertical&quot;,&quot;curved&quot;:0,&quot;rounded&quot;:0};" vertex="1" parent="1">
          <mxGeometry x="790" y="100" width="130" height="380" as="geometry" />
        </mxCell>
        <mxCell id="nRlpXkI3b5ocAR5TRdgN-23" value="" style="html=1;points=[];perimeter=orthogonalPerimeter;outlineConnect=0;targetShapes=umlLifeline;portConstraint=eastwest;newEdgeStyle={&quot;edgeStyle&quot;:&quot;elbowEdgeStyle&quot;,&quot;elbow&quot;:&quot;vertical&quot;,&quot;curved&quot;:0,&quot;rounded&quot;:0};" vertex="1" parent="nRlpXkI3b5ocAR5TRdgN-22">
          <mxGeometry x="60" y="147" width="10" height="33" as="geometry" />
        </mxCell>
        <mxCell id="nRlpXkI3b5ocAR5TRdgN-24" value="ORS-Dao" style="shape=umlLifeline;perimeter=lifelinePerimeter;whiteSpace=wrap;html=1;container=0;dropTarget=0;collapsible=0;recursiveResize=0;outlineConnect=0;portConstraint=eastwest;newEdgeStyle={&quot;edgeStyle&quot;:&quot;elbowEdgeStyle&quot;,&quot;elbow&quot;:&quot;vertical&quot;,&quot;curved&quot;:0,&quot;rounded&quot;:0};" vertex="1" parent="1">
          <mxGeometry x="550" y="100" width="130" height="380" as="geometry" />
        </mxCell>
        <mxCell id="nRlpXkI3b5ocAR5TRdgN-25" value="" style="html=1;points=[];perimeter=orthogonalPerimeter;outlineConnect=0;targetShapes=umlLifeline;portConstraint=eastwest;newEdgeStyle={&quot;edgeStyle&quot;:&quot;elbowEdgeStyle&quot;,&quot;elbow&quot;:&quot;vertical&quot;,&quot;curved&quot;:0,&quot;rounded&quot;:0};" vertex="1" parent="nRlpXkI3b5ocAR5TRdgN-24">
          <mxGeometry x="60" y="140" width="10" height="60" as="geometry" />
        </mxCell>
        <mxCell id="nRlpXkI3b5ocAR5TRdgN-39" style="edgeStyle=elbowEdgeStyle;rounded=0;orthogonalLoop=1;jettySize=auto;html=1;elbow=vertical;curved=0;" edge="1" parent="1">
          <mxGeometry relative="1" as="geometry">
            <mxPoint x="420" y="240" as="sourcePoint" />
            <mxPoint x="610" y="240" as="targetPoint" />
          </mxGeometry>
        </mxCell>
        <mxCell id="nRlpXkI3b5ocAR5TRdgN-40" value="rpc-get-distance-matrix" style="text;html=1;align=center;verticalAlign=middle;resizable=0;points=[];autosize=1;strokeColor=none;fillColor=none;" vertex="1" parent="1">
          <mxGeometry x="440" y="216" width="150" height="30" as="geometry" />
        </mxCell>
        <mxCell id="nRlpXkI3b5ocAR5TRdgN-41" value="http-get-distance-matrix" style="text;html=1;align=center;verticalAlign=middle;resizable=0;points=[];autosize=1;strokeColor=none;fillColor=none;" vertex="1" parent="1">
          <mxGeometry x="650" y="223" width="150" height="30" as="geometry" />
        </mxCell>
        <mxCell id="nRlpXkI3b5ocAR5TRdgN-42" style="edgeStyle=elbowEdgeStyle;rounded=0;orthogonalLoop=1;jettySize=auto;html=1;elbow=vertical;curved=0;" edge="1" parent="1">
          <mxGeometry relative="1" as="geometry">
            <mxPoint x="620.0000000000002" y="246.00297297297294" as="sourcePoint" />
            <mxPoint x="850" y="246.00000000000006" as="targetPoint" />
          </mxGeometry>
        </mxCell>
        <mxCell id="nRlpXkI3b5ocAR5TRdgN-43" value="distance-matrix" style="html=1;verticalAlign=bottom;endArrow=open;dashed=1;endSize=8;edgeStyle=elbowEdgeStyle;elbow=vertical;curved=0;rounded=0;" edge="1" parent="1" source="nRlpXkI3b5ocAR5TRdgN-25">
          <mxGeometry relative="1" as="geometry">
            <mxPoint x="420" y="300" as="targetPoint" />
            <Array as="points">
              <mxPoint x="560" y="300" />
            </Array>
            <mxPoint x="650" y="300" as="sourcePoint" />
          </mxGeometry>
        </mxCell>
        <mxCell id="nRlpXkI3b5ocAR5TRdgN-44" value="distance-matrix" style="html=1;verticalAlign=bottom;endArrow=open;dashed=1;endSize=8;edgeStyle=elbowEdgeStyle;elbow=vertical;curved=0;rounded=0;" edge="1" parent="1">
          <mxGeometry relative="1" as="geometry">
            <mxPoint x="620.0000000000002" y="280.30769230769226" as="targetPoint" />
            <Array as="points" />
            <mxPoint x="850" y="280" as="sourcePoint" />
          </mxGeometry>
        </mxCell>
        <mxCell id="nRlpXkI3b5ocAR5TRdgN-45" style="edgeStyle=elbowEdgeStyle;rounded=0;orthogonalLoop=1;jettySize=auto;html=1;elbow=vertical;curved=0;endArrow=classic;endFill=1;" edge="1" parent="1">
          <mxGeometry relative="1" as="geometry">
            <mxPoint x="420" y="330" as="sourcePoint" />
            <mxPoint x="1010" y="330" as="targetPoint" />
          </mxGeometry>
        </mxCell>
        <mxCell id="nRlpXkI3b5ocAR5TRdgN-46" value="rpc-make-route" style="text;html=1;align=center;verticalAlign=middle;resizable=0;points=[];autosize=1;strokeColor=none;fillColor=none;" vertex="1" parent="1">
          <mxGeometry x="721" y="308" width="100" height="30" as="geometry" />
        </mxCell>
        <mxCell id="nRlpXkI3b5ocAR5TRdgN-47" style="edgeStyle=elbowEdgeStyle;rounded=0;orthogonalLoop=1;jettySize=auto;html=1;elbow=vertical;curved=0;endArrow=open;endFill=0;dashed=1;" edge="1" parent="1" target="nRlpXkI3b5ocAR5TRdgN-15">
          <mxGeometry relative="1" as="geometry">
            <mxPoint x="1010" y="390" as="sourcePoint" />
            <mxPoint x="-110" y="390" as="targetPoint" />
          </mxGeometry>
        </mxCell>
        <mxCell id="nRlpXkI3b5ocAR5TRdgN-48" value="route" style="text;html=1;align=center;verticalAlign=middle;resizable=0;points=[];autosize=1;strokeColor=none;fillColor=none;" vertex="1" parent="1">
          <mxGeometry x="740" y="368" width="50" height="30" as="geometry" />
        </mxCell>
        <mxCell id="nRlpXkI3b5ocAR5TRdgN-57" style="edgeStyle=elbowEdgeStyle;rounded=0;orthogonalLoop=1;jettySize=auto;html=1;elbow=vertical;curved=0;dashed=1;endArrow=open;endFill=0;" edge="1" parent="1">
          <mxGeometry relative="1" as="geometry">
            <mxPoint x="410" y="409.99739130434784" as="sourcePoint" />
            <mxPoint x="265" y="410" as="targetPoint" />
          </mxGeometry>
        </mxCell>
        <mxCell id="nRlpXkI3b5ocAR5TRdgN-58" value="route" style="text;html=1;align=center;verticalAlign=middle;resizable=0;points=[];autosize=1;strokeColor=none;fillColor=none;" vertex="1" parent="1">
          <mxGeometry x="310" y="388" width="50" height="30" as="geometry" />
        </mxCell>
        <mxCell id="nRlpXkI3b5ocAR5TRdgN-59" style="edgeStyle=elbowEdgeStyle;rounded=0;orthogonalLoop=1;jettySize=auto;html=1;elbow=vertical;curved=0;" edge="1" parent="1" source="nRlpXkI3b5ocAR5TRdgN-2">
          <mxGeometry relative="1" as="geometry">
            <mxPoint x="270" y="190" as="sourcePoint" />
            <mxPoint x="409.75" y="189.99848484848488" as="targetPoint" />
          </mxGeometry>
        </mxCell>
        <mxCell id="nRlpXkI3b5ocAR5TRdgN-60" value="rpc-make-route" style="text;html=1;align=center;verticalAlign=middle;resizable=0;points=[];autosize=1;strokeColor=none;fillColor=none;" vertex="1" parent="1">
          <mxGeometry x="285" y="168" width="100" height="30" as="geometry" />
        </mxCell>
      </root>
    </mxGraphModel>
  </diagram>
</mxfile>
